name ./resultDataOpenSim/trcMotMarkerGrf/sub10/grf-01-05.mot
datacolumns 19
datarows 17
range 1.46000000 1.52400000
endheader

                time	     ground_force_vx	     ground_force_vy	     ground_force_vz	     ground_force_px	     ground_force_py	     ground_force_pz	   l_ground_force_vx	   l_ground_force_vy	   l_ground_force_vz	   l_ground_force_px	   l_ground_force_py	   l_ground_force_pz	     ground_torque_x	     ground_torque_y	     ground_torque_z	   l_ground_torque_x	   l_ground_torque_y	   l_ground_torque_z	
          1.46000000	        -13.93656551	        438.34329986	        -26.49474792	          0.79208613	          0.00000000	          0.00709051	          0.00000000	          0.00000000	          0.00000000	          0.00000000	          0.00000000	          0.00000000	          0.00000000	          2.26427964	          0.00000000	          0.00000000	          0.00000000	          0.00000000	
          1.46400000	        -12.48269440	        438.39953419	        -26.25786137	          0.79195587	          0.00000000	          0.00690753	          0.00000000	          0.00000000	          0.00000000	          0.00000000	          0.00000000	          0.00000000	          0.00000000	          2.35599617	          0.00000000	          0.00000000	          0.00000000	          0.00000000	
          1.46800000	        -10.80747424	        438.91587346	        -26.53662529	          0.79172026	          0.00000000	          0.00676095	          0.00000000	          0.00000000	          0.00000000	          0.00000000	          0.00000000	          0.00000000	          0.00000000	          2.48990727	          0.00000000	          0.00000000	          0.00000000	          0.00000000	
          1.47200000	         -8.89505782	        439.96956527	        -27.33296080	          0.79139769	          0.00000000	          0.00665319	          0.00000000	          0.00000000	          0.00000000	          0.00000000	          0.00000000	          0.00000000	          0.00000000	          2.66580764	          0.00000000	          0.00000000	          0.00000000	          0.00000000	
          1.47600000	         -6.75700404	        441.67308510	        -28.54146528	          0.79102452	          0.00000000	          0.00657588	          0.00000000	          0.00000000	          0.00000000	          0.00000000	          0.00000000	          0.00000000	          0.00000000	          2.87554399	          0.00000000	          0.00000000	          0.00000000	          0.00000000	
          1.48000000	         -4.41446327	        444.15752784	        -29.97486375	          0.79063425	          0.00000000	          0.00651737	          0.00000000	          0.00000000	          0.00000000	          0.00000000	          0.00000000	          0.00000000	          0.00000000	          3.10526437	          0.00000000	          0.00000000	          0.00000000	          0.00000000	
          1.48400000	         -1.88476685	        447.52582277	        -31.40867261	          0.79024011	          0.00000000	          0.00646896	          0.00000000	          0.00000000	          0.00000000	          0.00000000	          0.00000000	          0.00000000	          0.00000000	          3.33822126	          0.00000000	          0.00000000	          0.00000000	          0.00000000	
          1.48800000	          0.82277103	        451.80640606	        -32.62858289	          0.78983820	          0.00000000	          0.00642100	          0.00000000	          0.00000000	          0.00000000	          0.00000000	          0.00000000	          0.00000000	          0.00000000	          3.55793661	          0.00000000	          0.00000000	          0.00000000	          0.00000000	
          1.49200000	          3.70130679	        456.93640144	        -33.46845455	          0.78942589	          0.00000000	          0.00636246	          0.00000000	          0.00000000	          0.00000000	          0.00000000	          0.00000000	          0.00000000	          0.00000000	          3.75160829	          0.00000000	          0.00000000	          0.00000000	          0.00000000	
          1.49600000	          6.73573608	        462.78566747	        -33.83671168	          0.78901861	          0.00000000	          0.00628359	          0.00000000	          0.00000000	          0.00000000	          0.00000000	          0.00000000	          0.00000000	          0.00000000	          3.91330020	          0.00000000	          0.00000000	          0.00000000	          0.00000000	
          1.50000000	          9.89220834	        469.21017775	        -33.73119671	          0.78864454	          0.00000000	          0.00616772	          0.00000000	          0.00000000	          0.00000000	          0.00000000	          0.00000000	          0.00000000	          0.00000000	          4.04599850	          0.00000000	          0.00000000	          0.00000000	          0.00000000	
          1.50400000	         13.11139201	        476.09987731	        -33.23712964	          0.78835303	          0.00000000	          0.00599602	          0.00000000	          0.00000000	          0.00000000	          0.00000000	          0.00000000	          0.00000000	          0.00000000	          4.16152192	          0.00000000	          0.00000000	          0.00000000	          0.00000000	
          1.50800000	         16.30909160	        483.40173807	        -32.50773659	          0.78818052	          0.00000000	          0.00576786	          0.00000000	          0.00000000	          0.00000000	          0.00000000	          0.00000000	          0.00000000	          0.00000000	          4.27785268	          0.00000000	          0.00000000	          0.00000000	          0.00000000	
          1.51200000	         19.38829740	        491.12449907	        -31.73736096	          0.78815002	          0.00000000	          0.00548923	          0.00000000	          0.00000000	          0.00000000	          0.00000000	          0.00000000	          0.00000000	          0.00000000	          4.41453828	          0.00000000	          0.00000000	          0.00000000	          0.00000000	
          1.51600000	         22.26149207	        499.32182189	        -31.12946962	          0.78828633	          0.00000000	          0.00516623	          0.00000000	          0.00000000	          0.00000000	          0.00000000	          0.00000000	          0.00000000	          0.00000000	          4.58770066	          0.00000000	          0.00000000	          0.00000000	          0.00000000	
          1.52000000	         24.87576837	        508.05205299	        -30.85612911	          0.78860436	          0.00000000	          0.00480625	          0.00000000	          0.00000000	          0.00000000	          0.00000000	          0.00000000	          0.00000000	          0.00000000	          4.80622189	          0.00000000	          0.00000000	          0.00000000	          0.00000000	
          1.52400000	         27.23417079	        517.33893461	        -31.01968978	          0.78908253	          0.00000000	          0.00442643	          0.00000000	          0.00000000	          0.00000000	          0.00000000	          0.00000000	          0.00000000	          0.00000000	          5.06995364	          0.00000000	          0.00000000	          0.00000000	          0.00000000	
